<svg xmlns="http://www.w3.org/2000/svg" viewBox="0 0 512 512" width="512" height="512">
  <rect width="512" height="512" rx="48" fill="#ffffff"/>
  <g id="qr-dots">
  <circle cx="238.34" cy="44.14" r="7.77" fill="#000000"/>
  <circle cx="256.00" cy="44.14" r="7.77" fill="#000000"/>
  <circle cx="273.66" cy="44.14" r="7.77" fill="#000000"/>
  <circle cx="326.62" cy="44.14" r="7.77" fill="#000000"/>
  <circle cx="220.69" cy="61.79" r="7.77" fill="#000000"/>
  <circle cx="273.66" cy="61.79" r="7.77" fill="#000000"/>
  <circle cx="291.31" cy="61.79" r="7.77" fill="#000000"/>
  <circle cx="308.97" cy="61.79" r="7.77" fill="#000000"/>
  <circle cx="326.62" cy="61.79" r="7.77" fill="#000000"/>
  <circle cx="185.38" cy="79.45" r="7.77" fill="#000000"/>
  <circle cx="203.03" cy="79.45" r="7.77" fill="#000000"/>
  <circle cx="238.34" cy="79.45" r="7.77" fill="#000000"/>
  <circle cx="291.31" cy="79.45" r="7.77" fill="#000000"/>
  <circle cx="185.38" cy="97.10" r="7.77" fill="#000000"/>
  <circle cx="273.66" cy="97.10" r="7.77" fill="#000000"/>
  <circle cx="291.31" cy="97.10" r="7.77" fill="#000000"/>
  <circle cx="308.97" cy="97.10" r="7.77" fill="#000000"/>
  <circle cx="185.38" cy="114.76" r="7.77" fill="#000000"/>
  <circle cx="203.03" cy="114.76" r="7.77" fill="#000000"/>
  <circle cx="220.69" cy="114.76" r="7.77" fill="#000000"/>
  <circle cx="273.66" cy="114.76" r="7.77" fill="#000000"/>
  <circle cx="326.62" cy="114.76" r="7.77" fill="#000000"/>
  <circle cx="185.38" cy="132.41" r="7.77" fill="#000000"/>
  <circle cx="238.34" cy="132.41" r="7.77" fill="#000000"/>
  <circle cx="291.31" cy="132.41" r="7.77" fill="#000000"/>
  <circle cx="308.97" cy="132.41" r="7.77" fill="#000000"/>
  <circle cx="185.38" cy="150.07" r="7.77" fill="#000000"/>
  <circle cx="220.69" cy="150.07" r="7.77" fill="#000000"/>
  <circle cx="256.00" cy="150.07" r="7.77" fill="#000000"/>
  <circle cx="291.31" cy="150.07" r="7.77" fill="#000000"/>
  <circle cx="326.62" cy="150.07" r="7.77" fill="#000000"/>
  <circle cx="185.38" cy="167.72" r="7.77" fill="#000000"/>
  <circle cx="291.31" cy="167.72" r="7.77" fill="#000000"/>
  <circle cx="326.62" cy="167.72" r="7.77" fill="#000000"/>
  <circle cx="44.14" cy="185.38" r="7.77" fill="#000000"/>
  <circle cx="79.45" cy="185.38" r="7.77" fill="#000000"/>
  <circle cx="97.10" cy="185.38" r="7.77" fill="#000000"/>
  <circle cx="114.76" cy="185.38" r="7.77" fill="#000000"/>
  <circle cx="132.41" cy="185.38" r="7.77" fill="#000000"/>
  <circle cx="150.07" cy="185.38" r="7.77" fill="#000000"/>
  <circle cx="256.00" cy="185.38" r="7.77" fill="#000000"/>
  <circle cx="361.93" cy="185.38" r="7.77" fill="#000000"/>
  <circle cx="379.59" cy="185.38" r="7.77" fill="#000000"/>
  <circle cx="397.24" cy="185.38" r="7.77" fill="#000000"/>
  <circle cx="414.90" cy="185.38" r="7.77" fill="#000000"/>
  <circle cx="432.55" cy="185.38" r="7.77" fill="#000000"/>
  <circle cx="61.79" cy="203.03" r="7.77" fill="#000000"/>
  <circle cx="114.76" cy="203.03" r="7.77" fill="#000000"/>
  <circle cx="132.41" cy="203.03" r="7.77" fill="#000000"/>
  <circle cx="185.38" cy="203.03" r="7.77" fill="#000000"/>
  <circle cx="220.69" cy="203.03" r="7.77" fill="#000000"/>
  <circle cx="238.34" cy="203.03" r="7.77" fill="#000000"/>
  <circle cx="273.66" cy="203.03" r="7.77" fill="#000000"/>
  <circle cx="344.28" cy="203.03" r="7.77" fill="#000000"/>
  <circle cx="379.59" cy="203.03" r="7.77" fill="#000000"/>
  <circle cx="450.21" cy="203.03" r="7.77" fill="#000000"/>
  <circle cx="44.14" cy="220.69" r="7.77" fill="#000000"/>
  <circle cx="61.79" cy="220.69" r="7.77" fill="#000000"/>
  <circle cx="79.45" cy="220.69" r="7.77" fill="#000000"/>
  <circle cx="97.10" cy="220.69" r="7.77" fill="#000000"/>
  <circle cx="114.76" cy="220.69" r="7.77" fill="#000000"/>
  <circle cx="150.07" cy="220.69" r="7.77" fill="#000000"/>
  <circle cx="185.38" cy="220.69" r="7.77" fill="#000000"/>
  <circle cx="203.03" cy="220.69" r="7.77" fill="#000000"/>
  <circle cx="273.66" cy="220.69" r="7.77" fill="#000000"/>
  <circle cx="291.31" cy="220.69" r="7.77" fill="#000000"/>
  <circle cx="308.97" cy="220.69" r="7.77" fill="#000000"/>
  <circle cx="326.62" cy="220.69" r="7.77" fill="#000000"/>
  <circle cx="379.59" cy="220.69" r="7.77" fill="#000000"/>
  <circle cx="414.90" cy="220.69" r="7.77" fill="#000000"/>
  <circle cx="450.21" cy="220.69" r="7.77" fill="#000000"/>
  <circle cx="467.86" cy="220.69" r="7.77" fill="#000000"/>
  <circle cx="44.14" cy="238.34" r="7.77" fill="#000000"/>
  <circle cx="61.79" cy="238.34" r="7.77" fill="#000000"/>
  <circle cx="97.10" cy="238.34" r="7.77" fill="#000000"/>
  <circle cx="114.76" cy="238.34" r="7.77" fill="#000000"/>
  <circle cx="132.41" cy="238.34" r="7.77" fill="#000000"/>
  <circle cx="185.38" cy="238.34" r="7.77" fill="#000000"/>
  <circle cx="220.69" cy="238.34" r="7.77" fill="#000000"/>
  <circle cx="238.34" cy="238.34" r="7.77" fill="#000000"/>
  <circle cx="273.66" cy="238.34" r="7.77" fill="#000000"/>
  <circle cx="308.97" cy="238.34" r="7.77" fill="#000000"/>
  <circle cx="326.62" cy="238.34" r="7.77" fill="#000000"/>
  <circle cx="361.93" cy="238.34" r="7.77" fill="#000000"/>
  <circle cx="379.59" cy="238.34" r="7.77" fill="#000000"/>
  <circle cx="467.86" cy="238.34" r="7.77" fill="#000000"/>
  <circle cx="61.79" cy="256.00" r="7.77" fill="#000000"/>
  <circle cx="79.45" cy="256.00" r="7.77" fill="#000000"/>
  <circle cx="97.10" cy="256.00" r="7.77" fill="#000000"/>
  <circle cx="150.07" cy="256.00" r="7.77" fill="#000000"/>
  <circle cx="238.34" cy="256.00" r="7.77" fill="#000000"/>
  <circle cx="256.00" cy="256.00" r="7.77" fill="#000000"/>
  <circle cx="291.31" cy="256.00" r="7.77" fill="#000000"/>
  <circle cx="308.97" cy="256.00" r="7.77" fill="#000000"/>
  <circle cx="344.28" cy="256.00" r="7.77" fill="#000000"/>
  <circle cx="361.93" cy="256.00" r="7.77" fill="#000000"/>
  <circle cx="397.24" cy="256.00" r="7.77" fill="#000000"/>
  <circle cx="432.55" cy="256.00" r="7.77" fill="#000000"/>
  <circle cx="450.21" cy="256.00" r="7.77" fill="#000000"/>
  <circle cx="467.86" cy="256.00" r="7.77" fill="#000000"/>
  <circle cx="44.14" cy="273.66" r="7.77" fill="#000000"/>
  <circle cx="61.79" cy="273.66" r="7.77" fill="#000000"/>
  <circle cx="79.45" cy="273.66" r="7.77" fill="#000000"/>
  <circle cx="97.10" cy="273.66" r="7.77" fill="#000000"/>
  <circle cx="114.76" cy="273.66" r="7.77" fill="#000000"/>
  <circle cx="185.38" cy="273.66" r="7.77" fill="#000000"/>
  <circle cx="220.69" cy="273.66" r="7.77" fill="#000000"/>
  <circle cx="326.62" cy="273.66" r="7.77" fill="#000000"/>
  <circle cx="379.59" cy="273.66" r="7.77" fill="#000000"/>
  <circle cx="414.90" cy="273.66" r="7.77" fill="#000000"/>
  <circle cx="450.21" cy="273.66" r="7.77" fill="#000000"/>
  <circle cx="44.14" cy="291.31" r="7.77" fill="#000000"/>
  <circle cx="150.07" cy="291.31" r="7.77" fill="#000000"/>
  <circle cx="167.72" cy="291.31" r="7.77" fill="#000000"/>
  <circle cx="220.69" cy="291.31" r="7.77" fill="#000000"/>
  <circle cx="238.34" cy="291.31" r="7.77" fill="#000000"/>
  <circle cx="256.00" cy="291.31" r="7.77" fill="#000000"/>
  <circle cx="308.97" cy="291.31" r="7.77" fill="#000000"/>
  <circle cx="361.93" cy="291.31" r="7.77" fill="#000000"/>
  <circle cx="379.59" cy="291.31" r="7.77" fill="#000000"/>
  <circle cx="397.24" cy="291.31" r="7.77" fill="#000000"/>
  <circle cx="414.90" cy="291.31" r="7.77" fill="#000000"/>
  <circle cx="450.21" cy="291.31" r="7.77" fill="#000000"/>
  <circle cx="467.86" cy="291.31" r="7.77" fill="#000000"/>
  <circle cx="44.14" cy="308.97" r="7.77" fill="#000000"/>
  <circle cx="97.10" cy="308.97" r="7.77" fill="#000000"/>
  <circle cx="167.72" cy="308.97" r="7.77" fill="#000000"/>
  <circle cx="238.34" cy="308.97" r="7.77" fill="#000000"/>
  <circle cx="291.31" cy="308.97" r="7.77" fill="#000000"/>
  <circle cx="308.97" cy="308.97" r="7.77" fill="#000000"/>
  <circle cx="326.62" cy="308.97" r="7.77" fill="#000000"/>
  <circle cx="344.28" cy="308.97" r="7.77" fill="#000000"/>
  <circle cx="361.93" cy="308.97" r="7.77" fill="#000000"/>
  <circle cx="379.59" cy="308.97" r="7.77" fill="#000000"/>
  <circle cx="397.24" cy="308.97" r="7.77" fill="#000000"/>
  <circle cx="467.86" cy="308.97" r="7.77" fill="#000000"/>
  <circle cx="44.14" cy="326.62" r="7.77" fill="#000000"/>
  <circle cx="79.45" cy="326.62" r="7.77" fill="#000000"/>
  <circle cx="132.41" cy="326.62" r="7.77" fill="#000000"/>
  <circle cx="150.07" cy="326.62" r="7.77" fill="#000000"/>
  <circle cx="185.38" cy="326.62" r="7.77" fill="#000000"/>
  <circle cx="203.03" cy="326.62" r="7.77" fill="#000000"/>
  <circle cx="220.69" cy="326.62" r="7.77" fill="#000000"/>
  <circle cx="238.34" cy="326.62" r="7.77" fill="#000000"/>
  <circle cx="326.62" cy="326.62" r="7.77" fill="#000000"/>
  <circle cx="344.28" cy="326.62" r="7.77" fill="#000000"/>
  <circle cx="361.93" cy="326.62" r="7.77" fill="#000000"/>
  <circle cx="379.59" cy="326.62" r="7.77" fill="#000000"/>
  <circle cx="397.24" cy="326.62" r="7.77" fill="#000000"/>
  <circle cx="432.55" cy="326.62" r="7.77" fill="#000000"/>
  <circle cx="185.38" cy="344.28" r="7.77" fill="#000000"/>
  <circle cx="203.03" cy="344.28" r="7.77" fill="#000000"/>
  <circle cx="256.00" cy="344.28" r="7.77" fill="#000000"/>
  <circle cx="273.66" cy="344.28" r="7.77" fill="#000000"/>
  <circle cx="291.31" cy="344.28" r="7.77" fill="#000000"/>
  <circle cx="308.97" cy="344.28" r="7.77" fill="#000000"/>
  <circle cx="326.62" cy="344.28" r="7.77" fill="#000000"/>
  <circle cx="397.24" cy="344.28" r="7.77" fill="#000000"/>
  <circle cx="414.90" cy="344.28" r="7.77" fill="#000000"/>
  <circle cx="273.66" cy="361.93" r="7.77" fill="#000000"/>
  <circle cx="291.31" cy="361.93" r="7.77" fill="#000000"/>
  <circle cx="326.62" cy="361.93" r="7.77" fill="#000000"/>
  <circle cx="361.93" cy="361.93" r="7.77" fill="#000000"/>
  <circle cx="397.24" cy="361.93" r="7.77" fill="#000000"/>
  <circle cx="432.55" cy="361.93" r="7.77" fill="#000000"/>
  <circle cx="450.21" cy="361.93" r="7.77" fill="#000000"/>
  <circle cx="467.86" cy="361.93" r="7.77" fill="#000000"/>
  <circle cx="185.38" cy="379.59" r="7.77" fill="#000000"/>
  <circle cx="203.03" cy="379.59" r="7.77" fill="#000000"/>
  <circle cx="256.00" cy="379.59" r="7.77" fill="#000000"/>
  <circle cx="273.66" cy="379.59" r="7.77" fill="#000000"/>
  <circle cx="326.62" cy="379.59" r="7.77" fill="#000000"/>
  <circle cx="397.24" cy="379.59" r="7.77" fill="#000000"/>
  <circle cx="414.90" cy="379.59" r="7.77" fill="#000000"/>
  <circle cx="450.21" cy="379.59" r="7.77" fill="#000000"/>
  <circle cx="185.38" cy="397.24" r="7.77" fill="#000000"/>
  <circle cx="203.03" cy="397.24" r="7.77" fill="#000000"/>
  <circle cx="220.69" cy="397.24" r="7.77" fill="#000000"/>
  <circle cx="256.00" cy="397.24" r="7.77" fill="#000000"/>
  <circle cx="291.31" cy="397.24" r="7.77" fill="#000000"/>
  <circle cx="308.97" cy="397.24" r="7.77" fill="#000000"/>
  <circle cx="326.62" cy="397.24" r="7.77" fill="#000000"/>
  <circle cx="344.28" cy="397.24" r="7.77" fill="#000000"/>
  <circle cx="361.93" cy="397.24" r="7.77" fill="#000000"/>
  <circle cx="379.59" cy="397.24" r="7.77" fill="#000000"/>
  <circle cx="397.24" cy="397.24" r="7.77" fill="#000000"/>
  <circle cx="432.55" cy="397.24" r="7.77" fill="#000000"/>
  <circle cx="467.86" cy="397.24" r="7.77" fill="#000000"/>
  <circle cx="185.38" cy="414.90" r="7.77" fill="#000000"/>
  <circle cx="308.97" cy="414.90" r="7.77" fill="#000000"/>
  <circle cx="344.28" cy="414.90" r="7.77" fill="#000000"/>
  <circle cx="361.93" cy="414.90" r="7.77" fill="#000000"/>
  <circle cx="397.24" cy="414.90" r="7.77" fill="#000000"/>
  <circle cx="414.90" cy="414.90" r="7.77" fill="#000000"/>
  <circle cx="432.55" cy="414.90" r="7.77" fill="#000000"/>
  <circle cx="450.21" cy="414.90" r="7.77" fill="#000000"/>
  <circle cx="467.86" cy="414.90" r="7.77" fill="#000000"/>
  <circle cx="185.38" cy="432.55" r="7.77" fill="#000000"/>
  <circle cx="203.03" cy="432.55" r="7.77" fill="#000000"/>
  <circle cx="220.69" cy="432.55" r="7.77" fill="#000000"/>
  <circle cx="238.34" cy="432.55" r="7.77" fill="#000000"/>
  <circle cx="256.00" cy="432.55" r="7.77" fill="#000000"/>
  <circle cx="308.97" cy="432.55" r="7.77" fill="#000000"/>
  <circle cx="414.90" cy="432.55" r="7.77" fill="#000000"/>
  <circle cx="432.55" cy="432.55" r="7.77" fill="#000000"/>
  <circle cx="467.86" cy="432.55" r="7.77" fill="#000000"/>
  <circle cx="238.34" cy="450.21" r="7.77" fill="#000000"/>
  <circle cx="291.31" cy="450.21" r="7.77" fill="#000000"/>
  <circle cx="326.62" cy="450.21" r="7.77" fill="#000000"/>
  <circle cx="344.28" cy="450.21" r="7.77" fill="#000000"/>
  <circle cx="379.59" cy="450.21" r="7.77" fill="#000000"/>
  <circle cx="397.24" cy="450.21" r="7.77" fill="#000000"/>
  <circle cx="414.90" cy="450.21" r="7.77" fill="#000000"/>
  <circle cx="467.86" cy="450.21" r="7.77" fill="#000000"/>
  <circle cx="185.38" cy="467.86" r="7.77" fill="#000000"/>
  <circle cx="203.03" cy="467.86" r="7.77" fill="#000000"/>
  <circle cx="238.34" cy="467.86" r="7.77" fill="#000000"/>
  <circle cx="344.28" cy="467.86" r="7.77" fill="#000000"/>
  <circle cx="361.93" cy="467.86" r="7.77" fill="#000000"/>
  <circle cx="379.59" cy="467.86" r="7.77" fill="#000000"/>
  <circle cx="397.24" cy="467.86" r="7.77" fill="#000000"/>
  <circle cx="414.90" cy="467.86" r="7.77" fill="#000000"/>
  <circle cx="432.55" cy="467.86" r="7.77" fill="#000000"/>
  <circle cx="450.21" cy="467.86" r="7.77" fill="#000000"/>
  <circle cx="467.86" cy="467.86" r="7.77" fill="#000000"/>
  </g>
  <g id="qr-finders">
  <!-- Finder (0, 0) -->
  <path fill-rule="evenodd" d="M 90.92,35.31 L 158.90,35.31 L 158.90,103.28 Q 158.90,158.90 103.28,158.90 L 35.31,158.90 L 35.31,90.92 Q 35.31,35.31 90.92,35.31 Z M 52.97,52.97 h 88.28 v 88.28 h -88.28 Z" fill="#000000"/>
  <g transform="translate(97.10, 92.34)">
    <path d="M 0,0 C -23.83,-19.07 -30.98,7.15 0,28.60 C 30.98,7.15 23.83,-19.07 0,0 Z" fill="#000000"/>
  </g>
  <!-- Finder (0, 18) -->
  <path fill-rule="evenodd" d="M 408.72,35.31 L 476.69,35.31 L 476.69,103.28 Q 476.69,158.90 421.08,158.90 L 353.10,158.90 L 353.10,90.92 Q 353.10,35.31 408.72,35.31 Z M 370.76,52.97 h 88.28 v 88.28 h -88.28 Z" fill="#000000"/>
  <g transform="translate(414.90, 92.34)">
    <path d="M 0,0 C -23.83,-19.07 -30.98,7.15 0,28.60 C 30.98,7.15 23.83,-19.07 0,0 Z" fill="#000000"/>
  </g>
  <!-- Finder (18, 0) -->
  <path fill-rule="evenodd" d="M 90.92,353.10 L 158.90,353.10 L 158.90,421.08 Q 158.90,476.69 103.28,476.69 L 35.31,476.69 L 35.31,408.72 Q 35.31,353.10 90.92,353.10 Z M 52.97,370.76 h 88.28 v 88.28 h -88.28 Z" fill="#000000"/>
  <g transform="translate(97.10, 410.13)">
    <path d="M 0,0 C -23.83,-19.07 -30.98,7.15 0,28.60 C 30.98,7.15 23.83,-19.07 0,0 Z" fill="#000000"/>
  </g>
  </g>
</svg>